HIERARCHY
ROOT Hips
{
	OFFSET 0.00000 0.00000 0.00000
	CHANNELS 6 Xposition Yposition Zposition Zrotation Yrotation Xrotation 
	JOINT LHipJoint
	{
		OFFSET 0 0 0
		CHANNELS 3 Zrotation Yrotation Xrotation
		JOINT LeftUpLeg
		{
			OFFSET 1.92384 -1.64427 0.83032
			CHANNELS 3 Zrotation Yrotation Xrotation
			JOINT LeftLeg
			{
				OFFSET 2.52872 -6.94761 0.00000
				CHANNELS 3 Zrotation Yrotation Xrotation
				JOINT LeftFoot
				{
					OFFSET 2.51827 -6.91890 0.00000
					CHANNELS 3 Zrotation Yrotation Xrotation
					JOINT LeftToeBase
					{
						OFFSET 0.22757 -0.62524 2.06528
						CHANNELS 3 Zrotation Yrotation Xrotation
						End Site
						{
							OFFSET 0.00000 -0.00000 1.08218
						}
					}
				}
			}
		}
	}
	JOINT RHipJoint
	{
		OFFSET 0 0 0
		CHANNELS 3 Zrotation Yrotation Xrotation
		JOINT RightUpLeg
		{
			OFFSET -2.09517 -1.64427 0.83032
			CHANNELS 3 Zrotation Yrotation Xrotation
			JOINT RightLeg
			{
				OFFSET -2.55173 -7.01082 0.00000
				CHANNELS 3 Zrotation Yrotation Xrotation
				JOINT RightFoot
				{
					OFFSET -2.50265 -6.87598 0.00000
					CHANNELS 3 Zrotation Yrotation Xrotation
					JOINT RightToeBase
					{
						OFFSET -0.22612 -0.62126 1.98677
						CHANNELS 3 Zrotation Yrotation Xrotation
						End Site
						{
							OFFSET -0.00000 -0.00000 1.04433
						}
					}
				}
			}
		}
	}
	JOINT LowerBack
	{
		OFFSET 0 0 0
		CHANNELS 3 Zrotation Yrotation Xrotation
		JOINT Spine
		{
			OFFSET 0.02839 1.68926 0.31690
			CHANNELS 3 Zrotation Yrotation Xrotation
			JOINT Spine1
			{
				OFFSET -0.01522 1.70183 0.21192
				CHANNELS 3 Zrotation Yrotation Xrotation
				JOINT Neck
				{
					OFFSET 0 0 0
					CHANNELS 3 Zrotation Yrotation Xrotation
					JOINT Neck1
					{
						OFFSET -0.04523 1.88988 0.10630
						CHANNELS 3 Zrotation Yrotation Xrotation
						JOINT Head
						{
							OFFSET 0.05172 1.78070 -0.56858
							CHANNELS 3 Zrotation Yrotation Xrotation
							End Site
							{
								OFFSET 0.01532 1.90392 -0.20434
							}
						}
					}
				}
				JOINT LeftShoulder
				{
					OFFSET 0 0 0
					CHANNELS 3 Zrotation Yrotation Xrotation
					JOINT LeftArm
					{
						OFFSET 3.25522 0.75486 0.22086
						CHANNELS 3 Zrotation Yrotation Xrotation
						JOINT LeftForeArm
						{
							OFFSET 4.85645 -0.00000 0.00000
							CHANNELS 3 Zrotation Yrotation Xrotation
							JOINT LeftHand
							{
								OFFSET 2.79874 -0.00000 0.00000
								CHANNELS 3 Zrotation Yrotation Xrotation
								JOINT LeftFingerBase
								{
									OFFSET 0 0 0
									CHANNELS 3 Zrotation Yrotation Xrotation
									JOINT LeftHandIndex1
									{
										OFFSET 0.57340 -0.00000 0.00000
										CHANNELS 3 Zrotation Yrotation Xrotation
										End Site
										{
											OFFSET 0.46229 -0.00000 0.00000
										}
									}
								}
								JOINT LThumb
								{
									OFFSET 0 0 0
									CHANNELS 3 Zrotation Yrotation Xrotation
									End Site
									{
										OFFSET 0.46935 -0.00000 0.46935
									}
								}
							}
						}
					}
				}
				JOINT RightShoulder
				{
					OFFSET 0 0 0
					CHANNELS 3 Zrotation Yrotation Xrotation
					JOINT RightArm
					{
						OFFSET -3.29079 0.52751 0.36356
						CHANNELS 3 Zrotation Yrotation Xrotation
						JOINT RightForeArm
						{
							OFFSET -4.67018 -0.00000 0.00000
							CHANNELS 3 Zrotation Yrotation Xrotation
							JOINT RightHand
							{
								OFFSET -2.65534 -0.00000 0.00000
								CHANNELS 3 Zrotation Yrotation Xrotation
								JOINT RightFingerBase
								{
									OFFSET 0 0 0
									CHANNELS 3 Zrotation Yrotation Xrotation
									JOINT RightHandIndex1
									{
										OFFSET -0.59407 -0.00000 0.00000
										CHANNELS 3 Zrotation Yrotation Xrotation
										End Site
										{
											OFFSET -0.47895 -0.00000 0.00000
										}
									}
								}
								JOINT RThumb
								{
									OFFSET 0 0 0
									CHANNELS 3 Zrotation Yrotation Xrotation
									End Site
									{
										OFFSET -0.48627 -0.00000 0.48627
									}
								}
							}
						}
					}
				}
			}
		}
	}
}
MOTION
Frames: 13
Frame Time: 0.0181818
0.00 0.00 0.00 0 0 0 0 0 0 -21 0 0 0 0 0 0 0 0 0 0 0 0 0 0 21 0 0 0 0 0 0 0 0 0 0 0 0 0 0 0 0 0 0 0 0 0 0 -16 0 0 21 0 0 11 0 0 0 -8 0 0 0 0 0 0 0 0 0 0 0 0 0 0 0 0 0 0 0 0 8 0 0 0 0 0 0 0 0 0 0 0 0 0 0 0 0 0
0.00 0.00 0.00 1.8109 0.7606 -5.5345 0.0000 0.0000 0.0000 -8.0638 -19.4760 -104.7153 4.7404 13.0854 39.6890 0.2588 7.7361 9.8502 0.3731 -3.9233 -10.8611 0.0000 0.0000 0.0000 -25.1530 15.6424 -83.3540 -1.1686 -6.8621 19.3075 -3.0991 -16.6695 -42.1658 -0.0556 -1.5210 4.1835 1.7324 0.0587 -9.5028 1.8149 0.0119 -8.5644 0.9137 -0.0233 -3.5976 -0.4911 -0.8742 -13.2881 -2.0865 -0.3495 46.9696 -1.0727 -0.4859 21.1341 -0.0000 0.0000 0.0000 -88.5069 51.1134 48.9132 20.7080 -31.4859 -5.8967 -0.0000 0.0000 -7.8898 68.5430 48.4643 62.2970 -7.1250 0.0000 -0.0000 -171.9650 12.1579 -6.2255 -0.0000 0.0000 0.0000 62.8479 -65.5065 56.0844 -38.0502 46.8713 -17.0022 0.0000 -0.0000 -3.5446 -67.8507 -41.9491 58.6610 7.1250 -0.0000 -0.0000 168.3956 -7.6015 -10.1840
0.00 0.00 0.00 2.0687 1.3628 -6.2438 0.0000 0.0000 0.0000 -10.4300 -20.2942 -112.0701 8.8374 16.7020 55.5262 0.8521 1.9892 16.8835 0.1376 -2.3908 -6.5871 0.0000 0.0000 0.0000 -24.8766 15.5228 -81.6910 -0.9812 -6.3053 17.6729 -2.6357 -17.2814 -40.5384 -0.1000 -2.0394 5.6147 1.8462 0.3985 -9.3527 1.4743 0.4504 -8.3837 0.5221 0.1822 -3.4854 7.1988 4.2023 -11.0413 -0.7682 5.0666 44.2828 -0.6837 3.2873 18.9974 -0.0000 0.0000 0.0000 -86.1454 50.0968 51.3582 20.7591 -31.5461 -5.9234 -0.0000 0.0000 -8.0801 68.0146 48.1492 61.5422 -7.1250 0.0000 -0.0000 -171.9041 11.5833 -6.3709 -0.0000 0.0000 0.0000 65.2247 -65.9030 54.7108 -38.6150 47.2276 -17.4156 0.0000 -0.0000 -4.4351 -68.5715 -41.5144 59.3688 7.1250 -0.0000 -0.0000 167.9491 -7.9514 -10.5094
0.00 0.00 0.00 2.0508 1.5239 -6.8318 0.0000 0.0000 0.0000 -8.5201 -20.7417 -118.2440 13.7635 19.0407 71.4808 1.3210 2.0081 21.1635 0.0319 -1.1531 -3.1703 0.0000 0.0000 0.0000 -23.8455 15.6411 -78.7457 -0.5528 -4.7628 13.2333 -1.9605 -18.7821 -38.5773 -0.1063 -2.1020 5.7878 2.4131 0.7958 -9.1053 0.8801 0.9396 -8.3914 -0.3844 0.3808 -3.6107 14.2972 8.6479 -8.8320 1.1753 9.7031 41.7146 -0.1660 6.6173 17.7260 -0.0000 -0.0000 0.0000 -83.2775 49.7987 54.3845 20.8071 -31.6025 -5.9485 -0.0000 0.0000 -8.7231 67.9239 48.2566 61.4731 -7.1250 0.0000 -0.0000 -171.9894 11.5780 -6.3034 -0.0000 -0.0000 0.0000 70.2557 -65.8631 49.8643 -37.0531 46.2237 -16.2784 0.0000 -0.0000 -3.8095 -68.9354 -42.2357 60.1874 7.1250 -0.0000 -0.0000 168.2519 -8.7429 -10.0451
0.00 0.00 0.00 0.8444 -2.2851 -5.3376 0.0000 0.0000 0.0000 1.1581 -17.7868 -121.4438 18.1119 19.9143 84.4719 2.7810 -3.4194 32.8665 1.7711 -8.3721 -23.8500 0.0000 0.0000 0.0000 -23.9395 18.6776 -84.5120 -0.6709 -5.2380 14.5888 1.5833 -26.7070 -27.1535 -1.1891 -6.9198 19.4781 -0.9795 -1.5338 -7.0869 1.8356 -1.9557 -8.5805 2.4019 -0.8667 -4.8549 -22.0753 -14.7795 -4.2910 2.2597 -19.7140 33.6771 1.2424 -11.2559 15.0633 -0.0000 0.0000 0.0000 -95.4900 49.6353 40.2770 17.2464 -27.1814 -4.1993 -0.0000 0.0000 -9.6879 72.1240 49.2255 66.9308 -7.1250 0.0000 -0.0000 -171.6309 15.2597 -5.9360 -0.0000 0.0000 0.0000 72.4153 -47.4825 37.7059 -13.4023 21.8738 -2.6013 0.0000 0.0000 8.2017 -64.9430 -41.4939 54.7914 7.1250 -0.0000 -0.0000 169.0006 -4.7913 -10.2366
0.00 0.00 0.00 1.0030 -2.8484 -5.6302 0.0000 0.0000 0.0000 1.5426 -17.2339 -121.3260 18.2742 19.9284 84.9484 2.7625 -3.1835 32.6651 1.7659 -8.3605 -23.8146 0.0000 0.0000 0.0000 -14.4734 17.7443 -91.0246 -1.5575 -7.8763 22.3390 2.3246 -25.8100 -11.2711 -0.0613 -1.5982 4.3964 -1.0336 -1.5033 -6.8724 1.8409 -1.9161 -8.5685 2.4451 -0.8433 -4.9621 -22.3316 -14.8082 -4.2301 2.4315 -19.8454 33.9652 1.3008 -11.3324 15.2689 0.0000 -0.0000 0.0000 -95.8030 49.4526 39.8384 16.9391 -26.7774 -4.0598 -0.0000 0.0000 -9.8604 72.1712 49.2430 66.9945 -7.1250 0.0000 -0.0000 -171.6320 15.3041 -5.9271 0.0000 -0.0000 0.0000 72.1602 -47.0729 38.1934 -13.3612 21.8141 -2.5860 0.0000 0.0000 8.1796 -65.3593 -41.5330 55.3247 7.1250 -0.0000 -0.0000 168.8960 -5.1700 -10.2570
0.00 0.00 0.00 1.3834 -3.2948 -5.7507 0.0000 0.0000 0.0000 1.7298 -16.8505 -121.4702 18.5405 19.9488 85.7291 2.6978 -2.8945 32.1790 1.7597 -8.3465 -23.7716 0.0000 0.0000 0.0000 6.3987 16.0185 -100.5647 -3.6086 -11.6205 34.4025 0.3464 -15.0384 6.1441 -0.0113 -0.6857 1.8844 -1.0805 -1.3803 -6.8606 1.7189 -1.7566 -8.6550 2.3510 -0.7639 -5.0713 -22.3803 -14.9291 -4.2672 2.4514 -20.0998 34.4542 1.2305 -11.4543 15.5628 0.0000 -0.0000 0.0000 -95.8747 49.2140 39.4456 16.5942 -26.3197 -3.9057 -0.0000 0.0000 -9.6863 72.0701 49.1279 66.8338 -7.1250 0.0000 -0.0000 -171.5814 15.1717 -5.9879 0.0000 -0.0000 0.0000 72.1879 -46.9319 38.3915 -13.3334 21.7737 -2.5756 0.0000 0.0000 8.2420 -65.7903 -41.7392 55.9661 7.1250 -0.0000 -0.0000 168.8788 -5.6824 -10.1632
0.00 0.00 0.00 1.4510 -3.2357 -5.7698 0.0000 0.0000 0.0000 1.8951 -17.0059 -121.2160 18.3848 19.9373 85.2727 2.7147 -3.2501 32.4202 1.8954 -8.6446 -24.6899 0.0000 0.0000 0.0000 15.7802 16.2831 -110.2212 -7.4061 -15.6645 50.3938 -0.3861 -12.6423 13.2795 -0.3533 -3.8187 10.5672 -0.8037 -1.2546 -6.6241 1.6617 -1.5992 -8.7476 2.1484 -0.6997 -5.3185 -22.1648 -15.0620 -4.3879 2.7200 -20.3839 34.1692 1.2531 -11.5038 15.4933 0.0000 -0.0000 0.0000 -95.8769 48.5540 38.6556 15.8565 -25.3257 -3.5844 -0.0000 0.0000 -8.6246 71.4935 49.0143 66.0868 -7.1250 0.0000 -0.0000 -171.6336 14.6757 -6.0397 0.0000 -0.0000 0.0000 72.6669 -46.9843 37.8240 -13.1680 21.5329 -2.5146 0.0000 0.0000 8.3454 -66.5133 -42.1141 57.0579 7.1250 -0.0000 -0.0000 168.8715 -6.5593 -9.9792
0.00 0.00 0.00 1.6112 -3.3310 -5.5807 0.0000 0.0000 0.0000 1.8252 -17.0371 -120.8468 17.9664 19.9006 84.0446 2.8080 -3.7139 33.1412 1.9491 -8.7592 -25.0448 0.0000 0.0000 0.0000 14.7692 17.2564 -117.9814 -12.0391 -18.4071 66.1128 -0.3893 -17.4655 15.6958 -1.9466 -8.7540 25.0288 -0.3603 -0.9451 -5.7716 1.6273 -1.1976 -8.7474 1.8896 -0.5221 -5.8237 -21.3872 -15.0781 -5.1385 3.1873 -20.3843 33.2105 1.3302 -11.3051 15.1310 -0.0000 0.0000 0.0000 -96.1876 47.0455 36.6393 14.4970 -23.4408 -3.0230 -0.0000 0.0000 -6.1744 70.2947 48.6005 64.4770 -7.1250 0.0000 -0.0000 -171.6433 13.5515 -6.2339 -0.0000 0.0000 0.0000 73.2724 -46.9945 37.2662 -13.0190 21.3151 -2.4602 0.0000 0.0000 7.6072 -66.9548 -43.0038 58.0474 7.1250 -0.0000 -0.0000 169.2363 -7.5376 -9.4311
0.00 0.00 0.00 1.9541 -2.8640 -4.4466 0.0000 0.0000 0.0000 3.0755 -18.2812 -120.3337 16.7484 19.7446 80.4539 3.0011 -3.6906 34.1953 2.0038 -8.8741 -25.4022 0.0000 0.0000 0.0000 8.5520 16.1783 -122.9378 -17.3043 -19.8249 82.0962 -1.8718 -13.2512 24.8867 -0.4457 -4.2834 11.8753 0.6604 -0.3292 -4.2731 1.1408 -0.3905 -8.8088 0.8296 -0.1976 -6.7788 -18.0870 -13.5350 -8.6122 3.5216 -18.0918 34.9174 1.2488 -9.8029 15.9337 -0.0000 -0.0000 0.0000 -96.3202 43.3989 30.2831 10.9867 -18.2678 -1.7717 -0.0000 -0.0000 0.9996 65.6860 46.7259 58.1784 -7.1250 0.0000 -0.0000 -171.6707 8.9707 -7.0051 -0.0000 -0.0000 0.0000 75.9715 -46.8284 34.2369 -12.1548 20.0364 -2.1550 0.0000 0.0000 7.6424 -67.3354 -44.8959 59.3903 7.1250 -0.0000 -0.0000 170.1947 -9.0833 -8.2595
0.00 0.00 0.00 0.4138 -0.2067 -10.9482 0.0000 0.0000 0.0000 -2.1643 -18.6496 -118.6002 21.2121 19.9647 93.5460 1.9239 -4.2941 28.0243 1.7676 -8.3642 -23.8257 0.0000 0.0000 0.0000 1.1257 14.7411 -120.3947 -22.4147 -19.8596 97.0760 -1.1160 -19.9261 21.9957 -1.2121 -6.9842 19.6686 -1.8365 -0.8344 -3.9432 2.8981 -0.9931 -7.0235 4.0486 -0.3162 -4.9896 -11.1516 -9.1337 -10.1537 0.2752 -11.7407 40.0436 -0.0355 -6.6569 17.0274 -0.0000 0.0000 0.0000 -95.6056 51.5332 38.6402 13.3517 -21.8004 -2.5825 -0.0000 0.0000 -3.1386 68.7322 49.6366 62.9401 -7.1250 0.0000 -0.0000 -172.6230 12.9495 -5.5838 -0.0000 0.0000 0.0000 71.3555 -55.3017 40.2469 -13.2028 21.5837 -2.5274 0.0000 0.0000 3.3435 -68.1832 -47.1860 61.3783 7.1250 -0.0000 -0.0000 171.2973 -11.1489 -6.9383
0.00 0.00 0.00 -2.2649 2.1526 -17.9843 0.0000 0.0000 0.0000 -6.1266 -19.0701 -116.0946 26.0619 19.0952 107.9845 1.2015 -3.3634 22.1661 0.5182 -4.6136 -12.8097 0.0000 0.0000 0.0000 1.9045 11.9478 -117.3067 -27.4107 -18.6288 112.1551 -0.6037 -17.9827 17.6335 -1.3862 -7.4496 21.0543 -1.6953 -1.4832 -4.5086 4.3146 -1.8452 -5.3881 5.3919 -0.7761 -2.8459 -11.1214 -7.6995 -11.0544 0.2286 -9.4146 42.2847 0.2757 -5.6961 18.3642 -0.0000 -0.0000 0.0000 -96.2687 61.4390 39.9106 15.2439 -24.4847 -3.3264 -0.0000 0.0000 -2.4214 68.5960 49.4533 62.7134 -7.1250 0.0000 -0.0000 -172.5432 12.7500 -5.6766 -0.0000 -0.0000 0.0000 67.7563 -64.6201 38.8723 -13.1167 21.4580 -2.4958 0.0000 0.0000 4.3643 -66.1824 -46.0040 58.4665 7.1250 -0.0000 -0.0000 171.1305 -8.8831 -7.4862
0.00 0.00 0.00 -0.2628 -1.4505 -17.0807 0.0000 0.0000 0.0000 0.2910 -17.1389 -120.7627 26.2725 19.0293 108.6293 1.6868 -3.6545 26.0747 0.8393 -5.8438 -16.3318 0.0000 0.0000 0.0000 4.9837 14.8114 -121.3113 -26.9496 -18.8003 110.7179 -0.0698 -22.3421 16.2574 -2.7078 -10.2062 29.6471 -1.1606 -0.9191 -3.9919 2.6470 -1.1559 -4.6037 3.3576 -0.4993 -2.4236 -6.7818 -3.8539 -12.5190 -1.1936 -3.6678 43.1516 -0.0668 -2.8541 18.5306 0.0000 -0.0000 0.0000 -83.9667 66.8780 56.2375 24.2066 -35.3820 -7.8259 -0.0000 0.0000 -6.2525 72.8655 49.3665 67.8906 -7.1250 0.0000 -0.0000 -171.5663 15.8930 -5.8665 0.0000 -0.0000 0.0000 50.9918 -66.8728 70.8099 -22.7584 33.8236 -7.0034 0.0000 0.0000 13.2213 -73.3655 -44.6054 66.9521 7.1250 -0.0000 -0.0000 168.5032 -14.0227 -8.5456
